<svg width="512" height="512" viewBox="0 0 512 512" fill="none" xmlns="http://www.w3.org/2000/svg">
    <rect x="12" y="12" width="488" height="488" rx="96" fill="#CC0022"/>
    <path d="M186.759 347.214L180.797 228.444L301.86 95H419.713L283.976 244.494L223.903 305.943L186.759 347.214ZM90 416V95H196.389V416H90ZM300.943 416L206.477 291.269L276.639 216.98L426.133 416H300.943Z" fill="white"/>
    <path d="M93.8134 337.56V210.849L199.285 95H317.138L181.401 244.494L121.328 305.943L93.8134 337.56ZM90 416V95H93.8134V416H90ZM198.368 416L103.902 291.269L174.063 216.98L323.558 416H198.368Z" fill="#CC0022"/>
</svg>
